<svg xmlns="http://www.w3.org/2000/svg" width="100" height="100" viewBox="0 0 50 50">
    <path d="M25,0C11.028,0,2,7.615,2,19.4c0,5.634,1.773,9.527,2.797,11.307c0.091-0.175,0.183-0.35,0.275-0.524 c0.856-1.622,1.741-3.3,1.932-5.279c0.053-0.55,0.545-0.953,1.091-0.899c0.55,0.053,0.952,0.542,0.899,1.091 c-0.229,2.371-1.251,4.309-2.153,6.019C5.73,33.222,5.076,34.6,5.535,36.037c0.022,0.053,0.037,0.106,0.061,0.16 c0.009,0.023,0.022,0.048,0.032,0.071c0.249,0.532,0.576,1.059,1.004,1.572c0.003,0.003,0.007,0.004,0.01,0.008 c0.003,0.003,0.003,0.008,0.007,0.012c1.854,2.11,3.573,2.69,4.829,3.113C12.768,41.409,13,41.487,13,42.8c0,6.345,6.066,7.2,12,7.2 c5.934,0,12-0.855,12-7.2c0-1.313,0.232-1.391,1.523-1.826c1.255-0.423,2.975-1.003,4.827-3.113 c0.003-0.003,0.004-0.008,0.006-0.011c0.004-0.004,0.009-0.005,0.012-0.009c0.428-0.514,0.756-1.04,1.004-1.572 c0.009-0.023,0.022-0.048,0.032-0.071c0.023-0.054,0.038-0.106,0.061-0.16c0.459-1.438-0.195-2.815-1.307-4.922 c-0.902-1.71-1.925-3.648-2.153-6.019c-0.054-0.55,0.35-1.039,0.898-1.091c0.558-0.053,1.039,0.349,1.092,0.899 c0.191,1.979,1.076,3.657,1.933,5.279c0.092,0.175,0.184,0.35,0.275,0.524C46.228,28.927,48,25.034,48,19.4C48,7.615,38.972,0,25,0z M14.3,34.2c-1.6-0.601-3.2-2.7-1.7-7.4c1-3.1,4-4.5,7.2-3.5c2.8,0.9,3.7,4.4,2.9,6.9C21.5,33.8,18.1,35.5,14.3,34.2z M26.8,41 c-1,0-1.8-1.8-1.8-1.8S24.2,41,23.2,41c-0.6,0-1.2-0.5-1.2-1.4c0-1.8,3-5.6,3-5.6s3,3.8,3,5.6C28,40.5,27.4,41,26.8,41z M35.7,34.2 c-3.8,1.3-7.2-0.4-8.4-4c-0.8-2.5,0.101-6,2.9-6.9c3.2-1,6.2,0.4,7.2,3.5C38.9,31.5,37.3,33.6,35.7,34.2z"/>
</svg>